<?xml version="1.0" encoding="utf-8"?>
<!-- Generator: Adobe Illustrator 19.1.0, SVG Export Plug-In . SVG Version: 6.00 Build 0)  -->
<svg version="1.1" id="_x2014_ÎÓÈ_x5F_1" xmlns="http://www.w3.org/2000/svg" xmlns:xlink="http://www.w3.org/1999/xlink"
	 x="0px" y="0px" viewBox="0 0 257.9 253.3" enable-background="new 0 0 257.9 253.3" xml:space="preserve">
<path fill="#414042" d="M257.9,97.7H138.5L189.8,0C228.8,15.6,256.7,53.3,257.9,97.7z M22.2,82.3c0.4-1.1,0.6-2.4,0.6-3.6
	c0-6.3-5.1-11.4-11.4-11.4C5.1,67.2,0,72.3,0,78.6C0,84.9,5.1,90,11.4,90c1.4,0,2.8-0.3,4.1-0.8l26.3,26.3c3,25.7,15,48.7,32.8,65.7
	h149.9c20-19.1,32.6-45.7,33.5-75.4h-212L22.2,82.3z M236.7,232.1c-4.4,12.3-16.2,21.1-30.1,21.1c-16,0-29.3-11.8-31.6-27.2H124
	c-2.3,15.4-15.6,27.2-31.6,27.2c-14.4,0-26.6-9.5-30.6-22.6c-0.1-0.2-0.1-0.4-0.2-0.5c-0.4-1.3-0.7-2.6-0.9-4h0
	c-0.6-3.7-0.4-7.1,0-9.7h0c2.3-15.4,15.6-27.2,31.6-27.2c16,0,29.3,11.8,31.6,27.2h50.9c2.3-15.4,15.6-27.2,31.6-27.2
	c16,0,29.3,11.8,31.6,27.2h0c0.5,3.6,0.7,8.8-1.2,14.3C236.9,231.2,236.8,231.7,236.7,232.1z M112.8,221.3
	c0-11.3-9.2-20.5-20.5-20.5c-11.3,0-20.5,9.2-20.5,20.5c0,11.3,9.2,20.5,20.5,20.5C103.6,241.8,112.8,232.6,112.8,221.3z
	 M227.8,221.3c0-11.3-9.2-20.5-20.5-20.5c-11.3,0-20.5,9.2-20.5,20.5c0,11.3,9.2,20.5,20.5,20.5
	C218.6,241.8,227.8,232.6,227.8,221.3z"/>
</svg>
