<?xml version="1.0" encoding="utf-8"?>
<!-- Generator: Adobe Illustrator 19.1.0, SVG Export Plug-In . SVG Version: 6.00 Build 0)  -->
<svg version="1.1" id="_x2014_ÎÓÈ_x5F_1" xmlns="http://www.w3.org/2000/svg" xmlns:xlink="http://www.w3.org/1999/xlink"
	 x="0px" y="0px" viewBox="0 0 109.6 135" enable-background="new 0 0 109.6 135" xml:space="preserve">
<path fill-rule="evenodd" clip-rule="evenodd" fill="#193340" d="M51.4,91.4c-6.4-1.7-10.9-7.7-10.9-14.3V66.2
	c0.5-0.5,0.9-1.1,1.3-1.6c0.1-0.1,3.9-4.6-4.4-14.8c-6.7-8.2-8.6-17.4-6.3-30.9C32.9,8.1,43.1,0,54.8,0s21.9,8.1,23.7,18.8
	c2.2,13.5,0.4,22.8-6.3,30.9c-8.3,10.2-4.5,14.7-4.3,14.9c0.7,0.9,1.5,1.8,2.3,2.7v9.8c0,6.6-4.6,12.6-10.9,14.3
	c-1-1.1-2.4-1.7-3.9-1.7C53.9,89.7,52.5,90.3,51.4,91.4z M54.8,135l54.6-3.9c0.6-13.1,0.5-45.2-7.1-50.6c-3.8-2.7-8.5-3.8-13.5-4.9
	c-4.1-0.9-8.3-1.8-12.3-3.8v5.2c0,9.9-7,18.6-16.6,20.8c-0.4,0.7-1,1.4-1.7,1.8v5.2c0,5.9,4.8,10.6,10.6,10.6
	c5.9,0,10.6-4.8,10.6-10.6V102c-3.5-1.1-6-4.4-6-8.1c0-4.7,3.8-8.5,8.5-8.5c4.7,0,8.5,3.8,8.5,8.5c0,3.3-2,6.3-5,7.7v3.3
	c0,9.1-7.4,16.6-16.6,16.6c-9.1,0-16.6-7.4-16.6-16.6v-5.2c-0.7-0.5-1.3-1.1-1.7-1.8C41,95.7,34,87,34,77.1v-5.7
	c-4.2,2.3-8.8,3.4-13.3,4.3c-5,1.1-9.6,2.1-13.5,4.9c-7.5,5.4-7.7,37.5-7.1,50.6L54.8,135z M84.5,93.9c0-1.4-1.1-2.5-2.5-2.5
	c-1.4,0-2.5,1.1-2.5,2.5c0,1.4,1.1,2.5,2.5,2.5C83.4,96.4,84.5,95.3,84.5,93.9z"/>
</svg>
